# xmcd
#
# Track frame offsets:
#	150
#	10965
#	19545
#	36649
#	53702
#	73547
#	86347
#	96825
#
# Disc length: 1516 seconds
#
# Revision: 1
# Processed by: cddbd v1.5.2PL0 Copyright (c) Steve Scherf et al.
# Submitted via: EasyCDDAExtractor 5.0.6
#
DISCID=5d05ea08
DTITLE=Seaplane - We Didn't Know What Was Wrong
DYEAR=2009
DGENRE=Indie Rock
TTITLE0=The Man With No Name
TTITLE1=The Soiree
TTITLE2=The Switch
TTITLE3=Feather
TTITLE4=Plastic Jesus
TTITLE5=Rinse It
TTITLE6=The Underture
TTITLE7=Shotgun
EXTD=
EXTT0=
EXTT1=
EXTT2=
EXTT3=
EXTT4=
EXTT5=
EXTT6=
EXTT7=
PLAYORDER=
